<svg width="24" height="24" viewBox="0 0 24 24" fill="none" xmlns="http://www.w3.org/2000/svg">
<path fill-rule="evenodd" clip-rule="evenodd" d="M14 14V20.9975C14 21.5442 13.5512 22 12.9975 22H3.00247C2.45576 22 2 21.5512 2 20.9975V11.0025C2 10.4558 2.44882 10 3.00247 10H10V3.00247C10 2.45576 10.4488 2 11.0025 2H20.9975C21.5442 2 22 2.44882 22 3.00247V12.9975C22 13.5442 21.5512 14 20.9975 14H14ZM11.2 10H12.9975C13.24 10 13.4646 10.0883 13.6395 10.2349L15.457 5H16.8438L18.8047 10.6367H17.5508L17.1211 9.26953H15.1406L14.7109 10.6367H13.9303C13.9752 10.75 14 10.8734 14 11.0025V12.8H20.8V3.2H11.2V10ZM3.2 20.8V11.2H12.8V20.8H3.2ZM10.1324 14.6969H11.2255V13.669H8.18518L8.77153 13.488C8.69914 13.184 8.49645 12.7279 8.31548 12.3877L7.18621 12.7207C7.32375 13.0102 7.45405 13.3794 7.52644 13.669H4.54402V14.6969H5.68776C6.06419 15.6741 6.52748 16.5066 7.1283 17.2016C6.39717 17.7372 5.49231 18.1137 4.38477 18.3598C4.58745 18.6059 4.90597 19.0981 5.02179 19.3515C6.16553 19.033 7.12106 18.5769 7.9101 17.9544C8.65571 18.5552 9.56057 19.004 10.6754 19.2936C10.8346 19.004 11.1459 18.5407 11.3848 18.3091C10.3351 18.0775 9.45922 17.6938 8.73533 17.1726C9.32892 16.4994 9.79221 15.6814 10.1324 14.6969ZM6.78085 14.6969H8.94528C8.69916 15.3918 8.35893 15.9782 7.93184 16.4704C7.44683 15.9565 7.06317 15.3629 6.78085 14.6969ZM16.1172 6.07812L15.3945 8.38672H16.8672L16.1445 6.07812H16.1172Z" fill="black"/>
</svg>
